<?xml version="1.0" encoding="UTF-8"?>
<svg fill="white" width="752pt" height="752pt" version="1.1" viewBox="0 0 752 752" xmlns="http://www.w3.org/2000/svg">
 <defs>
  <clipPath id="a">
   <path d="m139.21 139.21h473.58v473.58h-473.58z"/>
  </clipPath>
 </defs>
 <g clip-path="url(#a)">
  <path d="m391.34 612.79h-30.688c-9.625-0.003907-18.57-4.9609-23.68-13.121-2.2266-3.5039-15.816-26.285-22.73-39.781l-24.531-10.086c-14.965 4.7344-41.91 11.461-44.234 12.027l0.003906 0.003907c-9.4062 2.1641-19.266-0.66406-26.098-7.4844l-21.738-21.738h0.003906c-6.8281-6.8242-9.6562-16.688-7.4844-26.094 0.94531-4.0742 7.3867-29.789 12.027-44.234l-10.086-24.438c-14.207-7.1992-37.887-21.547-39.781-22.73v0.003906c-8.1602-5.1094-13.113-14.055-13.117-23.68v-30.785c0.003906-9.625 4.957-18.57 13.117-23.68 3.5039-2.2266 26.285-15.816 39.781-22.73l10.086-24.438c-4.7344-14.965-11.461-41.91-12.027-44.234v0.003906c-2.1641-9.4062 0.66406-19.266 7.4844-26.094l21.738-21.738h-0.003906c6.8281-6.8281 16.688-9.6562 26.098-7.4844 4.0742 0.94531 29.789 7.3867 44.234 12.027l24.438-10.086c7.1992-14.207 21.547-37.887 22.73-39.781l-0.003907 0.003906c5.1055-8.1602 14.055-13.117 23.68-13.121h30.688c9.625 0.003906 18.574 4.9609 23.68 13.121 2.2266 3.5039 15.816 26.285 22.73 39.781l24.438 10.086c14.965-4.7344 41.91-11.461 44.234-12.027v-0.003906c9.4062-2.1641 19.262 0.66406 26.094 7.4844l21.738 21.738c6.8281 6.8242 9.6523 16.688 7.4805 26.094-0.94531 4.0742-7.3867 29.789-12.027 44.234l10.086 24.438c14.207 7.1992 37.887 21.547 39.781 22.73v-0.003907c8.1602 5.1094 13.117 14.055 13.117 23.68v30.688c0 9.6289-4.957 18.574-13.117 23.68-3.5039 2.2266-26.285 15.816-39.781 22.73l-9.8984 24.535c4.7344 14.965 11.461 41.91 12.027 44.234l0.003907-0.003907c2.1641 9.4062-0.66406 19.266-7.4844 26.094l-21.738 21.738c-6.8281 6.8203-16.688 9.6484-26.094 7.4844-4.0742-0.94531-29.789-7.3867-44.234-12.027l-24.438 10.086c-7.1992 14.207-21.547 37.887-22.73 39.781l0.003906-0.003906c-5.125 8.1914-14.117 13.152-23.777 13.121zm-100.92-91.117 42.953 17.852 2.1328 4.7344c4.3555 9.4727 20.078 36.086 23.68 41.531l-0.003906 0.003906c0.33594 0.53906 0.92969 0.86328 1.5664 0.85156h30.688c0.63281 0.011718 1.2266-0.3125 1.5625-0.85156 2.793-4.4531 18.941-31.445 23.68-41.531l2.1328-4.7344 43.098-17.855 4.7344 1.7539c9.8047 3.5977 39.688 11.27 45.984 12.785h-0.003906c0.59766 0.17578 1.2422-0.007813 1.6562-0.47266l21.738-21.738c0.45703-0.42188 0.64062-1.0625 0.47266-1.6602-1.1836-5.0664-8.8555-35.613-12.785-45.984l-1.7539-4.7344 17.762-43 4.7344-2.1328c9.4727-4.3555 36.086-20.078 41.531-23.68h0.003906c0.53906-0.33203 0.86328-0.92578 0.85156-1.5625v-30.688c0.011718-0.63281-0.3125-1.2305-0.85156-1.5625-4.4531-2.793-31.445-18.941-41.531-23.68l-4.7344-2.1328-17.855-43.098 1.7539-4.7344c3.5977-9.8047 11.27-39.688 12.785-45.984l-0.003906 0.003906c0.13672-0.59766-0.042969-1.2227-0.47266-1.6602l-21.738-21.738c-0.41797-0.45312-1.0586-0.63672-1.6562-0.47266-5.0664 1.1836-35.52 8.8555-45.984 12.785l-4.7344 1.7539-43.191-17.758-2.1328-4.7344c-4.3555-9.4727-20.078-36.086-23.68-41.531v-0.003906c-0.33203-0.53906-0.92578-0.86328-1.5625-0.85156h-30.496c-0.63672-0.011718-1.2305 0.3125-1.5664 0.85156-2.793 4.4531-18.941 31.445-23.68 41.531l-2.1328 4.7344-43.098 17.855-4.7344-1.7539c-9.8047-3.5977-39.688-11.27-45.984-12.785h0.003906c-0.59766-0.17578-1.2422 0.011719-1.6562 0.47656l-21.738 21.738v-0.003906c-0.45703 0.42188-0.63672 1.0625-0.47266 1.6602 1.1836 5.0664 8.8555 35.613 12.785 45.984l1.7539 4.7344-17.762 43.191-4.7344 2.1328c-9.4727 4.3555-36.086 20.078-41.531 23.68l-0.003906-0.003906c-0.53906 0.33594-0.86328 0.92969-0.85156 1.5664v30.688c-0.011718 0.63281 0.3125 1.2266 0.85156 1.5625 4.4531 2.793 31.445 18.941 41.531 23.68l4.7344 2.1328 17.855 43.098-1.7539 4.7344c-3.5977 9.8047-11.27 39.688-12.785 45.984l0.003906-0.003906c-0.13281 0.59766 0.042969 1.2227 0.47266 1.6562l21.738 21.738c0.42188 0.45703 1.0586 0.64062 1.6562 0.47266 5.0664-1.1836 35.52-8.8555 45.984-12.785zm85.574-35.047c-29.34 0-57.477-11.656-78.227-32.402-20.746-20.746-32.402-48.883-32.402-78.227 0-29.34 11.656-57.477 32.402-78.227 20.75-20.746 48.887-32.402 78.227-32.402 29.344 0 57.48 11.656 78.227 32.402 20.746 20.75 32.402 48.887 32.402 78.227-0.050781 29.328-11.719 57.438-32.457 78.172-20.734 20.738-48.844 32.406-78.172 32.457zm0-195.07c-22.395 0-43.871 8.8945-59.707 24.73-15.836 15.836-24.73 37.312-24.73 59.707s8.8945 43.875 24.73 59.711c15.836 15.832 37.312 24.73 59.707 24.73s43.875-8.8984 59.711-24.73c15.832-15.836 24.73-37.316 24.73-59.711-0.027344-22.387-8.9297-43.848-24.762-59.68-15.828-15.828-37.293-24.734-59.68-24.758z"/>
 </g>
</svg>
